<svg xmlns="http://www.w3.org/2000/svg" xmlns:xlink="http://www.w3.org/1999/xlink" width="500" zoomAndPan="magnify" viewBox="0 0 375 374.999991" height="500" preserveAspectRatio="xMidYMid meet" version="1.0"><defs><g/></defs><rect x="-37.5" width="450" fill="#ffffff" y="-37.499999" height="449.999989" fill-opacity="1"/><rect x="-37.5" width="450" fill="#ffffff" y="-37.499999" height="449.999989" fill-opacity="1"/><rect x="-37.5" width="450" fill="#f2f2f2" y="-37.499999" height="449.999989" fill-opacity="1"/><g fill="#4d3924" fill-opacity="1"><g transform="translate(127.733554, 199.427654)"><g><path d="M 17.175781 -72.226562 C 21.773438 -54.132812 39.871094 -55.050781 49.222656 -44.929688 L 49.222656 -57.042969 C 27.910156 -57.042969 17.175781 -61.339844 17.175781 -82.347656 L 17.175781 -107.1875 L 29.597656 -107.1875 C 48.609375 -107.1875 56.585938 -106.421875 67.320312 -95.996094 L 67.320312 -108.261719 L 5.367188 -108.261719 L 5.367188 0 L 17.175781 0 Z M 17.175781 -72.226562 "/></g></g></g><g fill="#4d3924" fill-opacity="1"><g transform="translate(155.982285, 232.334787)"><g><path d="M 69.042969 0 L 80.171875 0 L 40.550781 -93.558594 L 39.621094 -93.558594 C 29.550781 -76.460938 17.625 -52.34375 10.601562 -33.394531 C 7.421875 -24.914062 5.566406 -17.492188 4.902344 -11.660156 C 4.242188 -5.699219 5.699219 -1.722656 9.277344 -0.132812 C 10.203125 0.664062 10.601562 0.664062 11.394531 0.796875 C 17.359375 1.058594 19.613281 -3.84375 22.128906 -10.46875 C 26.371094 -20.140625 31.539062 -33.792969 54.066406 -35.910156 Z M 53.667969 -36.839844 C 30.742188 -34.585938 25.441406 -20.671875 21.070312 -10.734375 C 18.949219 -4.636719 16.828125 0 11.527344 -0.398438 C 10.867188 -0.796875 10.46875 -0.796875 9.671875 -1.058594 C 6.492188 -2.121094 5.566406 -6.226562 5.832031 -11.660156 C 6.492188 -17.359375 8.347656 -24.648438 11.527344 -33.128906 C 17.09375 -48.5 26.105469 -66.523438 34.1875 -82.160156 Z M 53.667969 -36.839844 "/></g></g></g><g fill="#4d3924" fill-opacity="1"><g transform="translate(219.452855, 118.507836)"><g><path d="M 24.890625 -3.886719 C 23.429688 -1.972656 22.261719 -1.253906 20.5 -1.644531 C 19.273438 -2.03125 18.199219 -2.777344 17.09375 -3.585938 C 18.585938 -4.8125 19.601562 -6.277344 20.199219 -7.292969 L 20.050781 -7.441406 C 19.601562 -6.664062 18.527344 -5.082031 16.972656 -3.765625 C 14.074219 -6.632812 11.566406 -9.800781 9.59375 -12.460938 C 16.464844 -15.179688 14.195312 -21.726562 9.503906 -21.726562 C 4.960938 -21.726562 3.496094 -16.464844 7.050781 -11.714844 C 0.210938 -9.503906 -0.386719 -2.152344 3.375 0.359375 C 7.351562 2.867188 11.804688 0.359375 15.628906 -2.421875 C 16.855469 -1.464844 18.527344 -0.597656 20.410156 -0.597656 C 22.414062 -0.597656 23.875 -2.300781 24.953125 -3.765625 Z M 7.140625 -11.59375 C 8.996094 -9.113281 12.96875 -4.570312 15.480469 -2.511719 C 11.234375 0.269531 6.664062 1.253906 3.796875 -2.09375 C 0.777344 -5.828125 3.019531 -10.070312 7.140625 -11.59375 Z M 9.503906 -21.425781 C 13.417969 -21.425781 13.535156 -14.941406 9.441406 -12.609375 C 5.019531 -18.496094 6.214844 -21.425781 9.503906 -21.425781 Z M 9.503906 -21.425781 "/></g></g></g><g fill="#4d3924" fill-opacity="1"><g transform="translate(71.402551, 278.080014)"><g><path d="M 12.652344 -9.542969 L 12.652344 -9.03125 L 15.34375 -9.03125 L 15.34375 -0.628906 C 14.328125 -0.238281 12.980469 0.0585938 11.484375 0.0585938 C 6.820312 0.0585938 3.378906 -2.273438 3.378906 -9.300781 C 3.378906 -17.046875 8.316406 -18.632812 11.484375 -18.632812 C 15.015625 -18.632812 16.957031 -17.796875 16.957031 -17.796875 L 16.957031 -18.394531 C 16.957031 -18.394531 14.894531 -19.113281 11.484375 -19.113281 C 6.101562 -19.113281 1.195312 -16.242188 1.195312 -9.300781 C 1.195312 -1.316406 7.449219 0.566406 11.214844 0.566406 C 14.953125 0.566406 17.46875 -1.015625 17.46875 -1.015625 L 17.46875 -9.542969 Z M 12.652344 -9.542969 "/></g></g></g><g fill="#4d3924" fill-opacity="1"><g transform="translate(90.360012, 278.080014)"><g><path d="M 14.597656 0.03125 L 7.566406 -8.824219 C 9.78125 -9.121094 13.128906 -10.199219 13.128906 -14.058594 C 13.128906 -18.183594 8.644531 -18.753906 7.117188 -18.753906 C 5.652344 -18.753906 1.4375 -18.753906 1.4375 -18.753906 L 1.4375 0.03125 L 3.558594 0.03125 L 3.558594 -8.703125 L 4.933594 -8.703125 L 11.875 0.03125 Z M 3.558594 -18.273438 L 5.980469 -18.273438 C 9.03125 -18.273438 10.855469 -17.019531 10.855469 -13.730469 C 10.855469 -10.378906 8.703125 -9.183594 5.203125 -9.183594 L 3.558594 -9.183594 Z M 3.558594 -18.273438 "/></g></g></g><g fill="#4d3924" fill-opacity="1"><g transform="translate(105.968528, 278.080014)"><g><path d="M 15.644531 0.03125 L 17.945312 0.03125 L 9.722656 -19.113281 L 9.570312 -19.113281 L 1.046875 0.03125 L 1.703125 0.03125 L 5.085938 -7.507812 L 12.382812 -7.507812 Z M 5.292969 -8.015625 L 8.792969 -15.882812 L 12.171875 -8.015625 Z M 5.292969 -8.015625 "/></g></g></g><g fill="#4d3924" fill-opacity="1"><g transform="translate(124.985798, 278.080014)"><g><path d="M 7.117188 -18.753906 C 5.652344 -18.753906 1.4375 -18.753906 1.4375 -18.753906 L 1.4375 0.03125 L 3.558594 0.03125 L 3.558594 -8.703125 L 5.710938 -8.703125 C 6.609375 -8.703125 13.128906 -8.675781 13.128906 -14.058594 C 13.128906 -18.183594 8.644531 -18.753906 7.117188 -18.753906 Z M 5.203125 -9.183594 L 3.558594 -9.183594 L 3.558594 -18.273438 L 5.980469 -18.273438 C 9.03125 -18.273438 10.855469 -17.019531 10.855469 -13.730469 C 10.855469 -10.378906 8.703125 -9.183594 5.203125 -9.183594 Z M 5.203125 -9.183594 "/></g></g></g><g fill="#4d3924" fill-opacity="1"><g transform="translate(139.368351, 278.080014)"><g><path d="M 12.351562 -18.753906 L 12.351562 -10.019531 L 3.558594 -10.019531 L 3.558594 -18.753906 L 1.4375 -18.753906 L 1.4375 0.03125 L 3.558594 0.03125 L 3.558594 -9.542969 L 12.351562 -9.542969 L 12.351562 0.03125 L 14.507812 0.03125 L 14.507812 -18.753906 Z M 12.351562 -18.753906 "/></g></g></g><g fill="#4d3924" fill-opacity="1"><g transform="translate(155.425385, 278.080014)"><g><path d="M 1.734375 0.03125 L 3.859375 0.03125 L 3.859375 -18.753906 L 1.734375 -18.753906 Z M 1.734375 0.03125 "/></g></g></g><g fill="#4d3924" fill-opacity="1"><g transform="translate(161.166447, 278.080014)"><g><path d="M 16.957031 -1.675781 C 16.957031 -1.675781 14.953125 0.0585938 11.484375 0.0585938 C 8.136719 0.0585938 3.378906 -1.4375 3.378906 -9.300781 C 3.378906 -17.046875 8.585938 -18.632812 11.484375 -18.632812 C 15.015625 -18.632812 16.957031 -17.226562 16.957031 -17.226562 L 16.957031 -17.886719 C 16.957031 -17.886719 14.894531 -19.113281 11.484375 -19.113281 C 6.101562 -19.113281 1.195312 -16.242188 1.195312 -9.300781 C 1.195312 -1.316406 7.449219 0.566406 11.214844 0.566406 C 14.953125 0.566406 16.957031 -1.015625 16.957031 -1.015625 Z M 16.957031 -1.675781 "/></g></g></g><g fill="#4d3924" fill-opacity="1"><g transform="translate(179.406286, 278.080014)"><g/></g></g><g fill="#4d3924" fill-opacity="1"><g transform="translate(186.881623, 278.080014)"><g><path d="M 9.183594 -18.753906 L 1.4375 -18.753906 L 1.4375 0.03125 L 7.777344 0.03125 C 8.675781 0.03125 18.695312 0.480469 18.695312 -9.660156 C 18.695312 -17.855469 12.652344 -18.753906 9.183594 -18.753906 Z M 7.714844 -0.449219 L 3.558594 -0.449219 L 3.558594 -18.246094 L 8.046875 -18.246094 C 11.457031 -18.246094 16.480469 -16.988281 16.480469 -9.660156 C 16.480469 -2.363281 11.8125 -0.449219 7.714844 -0.449219 Z M 7.714844 -0.449219 "/></g></g></g><g fill="#4d3924" fill-opacity="1"><g transform="translate(206.945444, 278.080014)"><g><path d="M 10.945312 -18.273438 L 10.945312 -18.753906 L 1.4375 -18.753906 L 1.4375 0.03125 L 10.945312 0.03125 L 10.945312 -0.449219 L 3.558594 -0.449219 L 3.558594 -9.542969 L 10.140625 -9.542969 L 10.140625 -10.019531 L 3.558594 -10.019531 L 3.558594 -18.273438 Z M 10.945312 -18.273438 "/></g></g></g><g fill="#4d3924" fill-opacity="1"><g transform="translate(219.175102, 278.080014)"><g><path d="M 1.046875 -1.375 L 1.046875 -0.6875 C 1.046875 -0.6875 2.871094 0.777344 6.101562 0.777344 C 9.332031 0.777344 12.414062 -1.464844 12.414062 -4.785156 C 12.414062 -11.484375 2.8125 -9.511719 2.8125 -14.953125 C 2.8125 -17.078125 4.277344 -18.8125 6.847656 -18.8125 C 9.390625 -18.8125 11.035156 -17.585938 11.035156 -17.585938 L 11.007812 -18.214844 C 11.007812 -18.214844 9.210938 -19.320312 6.820312 -19.320312 C 4.457031 -19.320312 1.136719 -17.886719 1.136719 -14.148438 C 1.136719 -7.449219 10.707031 -9.960938 10.707031 -4.039062 C 10.707031 -1.136719 8.496094 0.300781 6.101562 0.300781 C 3.53125 0.300781 2.09375 -0.566406 1.046875 -1.375 Z M 1.046875 -1.375 "/></g></g></g><g fill="#4d3924" fill-opacity="1"><g transform="translate(232.780224, 278.080014)"><g><path d="M 1.734375 0.03125 L 3.859375 0.03125 L 3.859375 -18.753906 L 1.734375 -18.753906 Z M 1.734375 0.03125 "/></g></g></g><g fill="#4d3924" fill-opacity="1"><g transform="translate(238.521286, 278.080014)"><g><path d="M 12.652344 -9.542969 L 12.652344 -9.03125 L 15.34375 -9.03125 L 15.34375 -0.628906 C 14.328125 -0.238281 12.980469 0.0585938 11.484375 0.0585938 C 6.820312 0.0585938 3.378906 -2.273438 3.378906 -9.300781 C 3.378906 -17.046875 8.316406 -18.632812 11.484375 -18.632812 C 15.015625 -18.632812 16.957031 -17.796875 16.957031 -17.796875 L 16.957031 -18.394531 C 16.957031 -18.394531 14.894531 -19.113281 11.484375 -19.113281 C 6.101562 -19.113281 1.195312 -16.242188 1.195312 -9.300781 C 1.195312 -1.316406 7.449219 0.566406 11.214844 0.566406 C 14.953125 0.566406 17.46875 -1.015625 17.46875 -1.015625 L 17.46875 -9.542969 Z M 12.652344 -9.542969 "/></g></g></g><g fill="#4d3924" fill-opacity="1"><g transform="translate(257.478748, 278.080014)"><g><path d="M 16.691406 -18.753906 L 16.210938 -18.753906 L 16.210938 -2.839844 L 1.496094 -19.113281 L 1.4375 -19.113281 L 1.4375 0.03125 L 1.914062 0.03125 L 1.914062 -15.703125 L 16.601562 0.566406 L 16.691406 0.566406 Z M 16.691406 -18.753906 "/></g></g></g><g fill="#4d3924" fill-opacity="1"><g transform="translate(275.748484, 278.080014)"><g><path d="M 10.945312 -18.273438 L 10.945312 -18.753906 L 1.4375 -18.753906 L 1.4375 0.03125 L 10.945312 0.03125 L 10.945312 -0.449219 L 3.558594 -0.449219 L 3.558594 -9.542969 L 10.140625 -9.542969 L 10.140625 -10.019531 L 3.558594 -10.019531 L 3.558594 -18.273438 Z M 10.945312 -18.273438 "/></g></g></g><g fill="#4d3924" fill-opacity="1"><g transform="translate(287.978143, 278.080014)"><g><path d="M 14.597656 0.03125 L 7.566406 -8.824219 C 9.78125 -9.121094 13.128906 -10.199219 13.128906 -14.058594 C 13.128906 -18.183594 8.644531 -18.753906 7.117188 -18.753906 C 5.652344 -18.753906 1.4375 -18.753906 1.4375 -18.753906 L 1.4375 0.03125 L 3.558594 0.03125 L 3.558594 -8.703125 L 4.933594 -8.703125 L 11.875 0.03125 Z M 3.558594 -18.273438 L 5.980469 -18.273438 C 9.03125 -18.273438 10.855469 -17.019531 10.855469 -13.730469 C 10.855469 -10.378906 8.703125 -9.183594 5.203125 -9.183594 L 3.558594 -9.183594 Z M 3.558594 -18.273438 "/></g></g></g></svg>